<?xml version="1.0" encoding="utf-8" ?><svg xmlns="http://www.w3.org/2000/svg" xmlns:xlink="http://www.w3.org/1999/xlink" width="4096" height="4096" viewBox="0 0 4096 4096"><path fill="#F4F0DE" d="M0 0L4096 0L4096 4096L0 4096L0 0Z"/><path fill="#DF795E" d="M861.294 2771.09C810.976 2703.46 785.832 2650.76 755.131 2573.95C609.6 2209.9 619.438 1813.05 784.325 1456.56C902.806 1207.04 1094.12 1009.81 1324.76 861.1C1413.81 796.921 1502.87 769.747 1604.82 734.141C1941.36 616.608 2315.38 647.121 2641.04 785.507C2775.06 842.458 2972.69 997.816 3073.46 1105.36C3134.14 1171.23 3188.88 1242.32 3237.05 1317.8C3355.52 1477.33 3430.85 1757.7 3444.82 1954.76C3451.68 2050.57 3447.9 2146.85 3433.56 2241.83C3411.61 2390.45 3364.25 2544.58 3294.46 2677.85C3274.82 2715.36 3255.66 2744.69 3234.11 2780.26C3119.8 2533.33 2925.61 2332.14 2682.89 2209.16C2656.78 2303.25 2598.12 2435.55 2540.05 2514.63C2447.58 2640.55 2298.73 2756.5 2163.9 2832.71C2072.63 2885.04 1974.6 2924.59 1872.57 2950.26L1870.5 2949.95C1819.49 2935.33 1768.22 2912.53 1719.42 2891.84C1335.79 2729.18 1052.08 2324.16 1134.36 1895.69L1132.49 1895.37C1101.23 1920.55 1034.27 2006.27 1012.03 2040.99C875.257 2254.55 810.073 2521.15 861.294 2771.09Z"/><path fill="#F4F0DE" d="M1136.79 1894.93C1147.39 1863.77 1315.02 1774.17 1351.57 1756.23C1581.53 1642.99 1847.04 1625.66 2089.76 1708.07C2271.87 1770.76 2469.47 1886.16 2584.06 2043.93C2627.38 2103.57 2648.73 2145.02 2682.89 2209.16C2656.78 2303.25 2598.12 2435.55 2540.05 2514.63C2447.58 2640.55 2298.73 2756.5 2163.9 2832.71C2072.63 2885.04 1974.6 2924.59 1872.57 2950.26L1870.5 2949.95C1819.49 2935.33 1768.22 2912.53 1719.42 2891.84C1335.79 2729.18 1052.08 2324.16 1134.36 1895.69L1136.79 1894.93Z"/><path fill="#3C405A" d="M1134.36 1895.69L1136.79 1894.93C1165.72 1939.13 1193.57 1979.98 1228.46 2020.81C1328.3 2137.49 1455.03 2232.42 1595.7 2294.13C1621.08 2305.53 1651.75 2311.12 1677.95 2318.76C1701.18 2325.53 1728.91 2334.77 1750.93 2341.01C1969.29 2402.83 2214.35 2399.22 2425.7 2312.93C2436.27 2308.61 2464.97 2311.35 2480.75 2305.81C2552.09 2280.76 2617.77 2246.42 2682.89 2209.16C2656.78 2303.25 2598.12 2435.55 2540.05 2514.63C2447.58 2640.55 2298.73 2756.5 2163.9 2832.71C2072.63 2885.04 1974.6 2924.59 1872.57 2950.26L1870.5 2949.95C1819.49 2935.33 1768.22 2912.53 1719.42 2891.84C1335.79 2729.18 1052.08 2324.16 1134.36 1895.69Z"/><path fill="#3C405A" d="M861.294 2771.09C810.976 2703.46 785.832 2650.76 755.131 2573.95C609.6 2209.9 619.438 1813.05 784.325 1456.56C902.806 1207.04 1094.12 1009.81 1324.76 861.1C1413.81 796.921 1502.87 769.747 1604.82 734.141C1941.36 616.608 2315.38 647.121 2641.04 785.507C2775.06 842.458 2972.69 997.816 3073.46 1105.36C3134.14 1171.23 3188.88 1242.32 3237.05 1317.8L3233.59 1318.82C3199.24 1290.89 3167.43 1264.29 3130.83 1238.42C2993.04 1141.01 2836.46 1064.78 2672.65 1023.07C2642.92 1015.5 2596.89 1008.85 2565.97 1003.67C2440.69 982.056 2313.04 977.73 2186.58 990.811C1870.95 1023.07 1532.6 1173.24 1326.81 1421.16C1230.83 1536.79 1134.01 1732.14 1136.03 1885.99C1134.69 1891.93 1135.75 1890.97 1132.49 1895.37C1101.23 1920.55 1034.27 2006.27 1012.03 2040.99C875.257 2254.55 810.073 2521.15 861.294 2771.09Z"/><path fill="#F4F0DE" d="M1136.03 1885.99C1134.01 1732.14 1230.83 1536.79 1326.81 1421.16C1532.6 1173.24 1870.95 1023.07 2186.58 990.811C2313.04 977.73 2440.69 982.056 2565.97 1003.67C2596.89 1008.85 2642.92 1015.5 2672.65 1023.07C2836.46 1064.78 2993.04 1141.01 3130.83 1238.42C3167.43 1264.29 3199.24 1290.89 3233.59 1318.82C3235.54 1352.08 3218.38 1423.94 3211.15 1457.29C3200.02 1508.58 3173.28 1562.77 3155.85 1612.43C3146.26 1638.09 3136.84 1663.44 3126.43 1688.77C3117.99 1709.3 3100.96 1729.38 3093.15 1748.45C3052.32 1848.19 2986.72 1930.12 2916.86 2011.65C2849.66 2090.08 2769.46 2151.38 2682.85 2207.97C2737.56 2011.67 2716.15 1847.6 2617.36 1669.02C2546.28 1540.53 2454.53 1468.04 2324.52 1402.8C2267.82 1374.36 2260.13 1366.94 2193.24 1347.13C1981.78 1284.5 1733.65 1324.87 1542.02 1430.28C1382.55 1518 1273.53 1637.46 1181.89 1794.04C1170.38 1813.83 1159.76 1834.11 1150.06 1854.84C1146.38 1862.7 1139.52 1880.18 1136.03 1885.99Z"/><path fill="#DF795E" d="M863.722 2775.07C927.738 2813.32 1012.31 2858.21 1080.3 2887.94C1292.12 2980.59 1529.16 3016.86 1757.5 2974.23C1782.09 2969.64 1847.88 2959.05 1870.5 2949.95L1872.57 2950.26C1887.73 2959.76 1978.75 2983.38 1998.94 2988.16C2309.09 3061.6 2641.91 3045.07 2940.01 2930.34C3047.41 2889 3136.61 2840.57 3233.63 2780.7C3113.09 2964.65 2954.8 3120.86 2769.26 3238.95C2586.66 3354.07 2369.49 3411.49 2155.35 3432.04C2013.48 3445.65 1851.18 3426.49 1711.93 3394.75C1408.73 3323.08 1139.63 3148.78 950.251 2901.39C918.037 2859.84 891.739 2819.52 863.722 2775.07Z"/></svg>